<?xml version="1.0" standalone="no"?><!DOCTYPE svg PUBLIC "-//W3C//DTD SVG 1.1//EN" "http://www.w3.org/Graphics/SVG/1.1/DTD/svg11.dtd"><svg t="1547127936872" class="icon" style="" viewBox="0 0 1024 1024" version="1.1" xmlns="http://www.w3.org/2000/svg" p-id="14828" xmlns:xlink="http://www.w3.org/1999/xlink" width="32" height="32"><defs><style type="text/css"></style></defs><path d="M611.82862221 517.43478518C691.07863703 480.78317036 746.42014814 400.80497778 746.42014814 307.84094815 746.42014814 180.65256296 642.89754074 77.00859258 515.58779258 77.00859258s-230.83235555 103.64397037-230.83235555 230.83235557c0 92.96402963 55.22014815 172.94222222 134.47016296 209.59383703-183.98625185 43.69066667-321.36912592 208.86565925-321.36912592 405.95911112h43.93339259c0-206.07431111 167.72361482-373.67656297 373.79792592-373.67656297s373.67656297 167.60225185 373.67656297 373.67656297h43.93339259c0-197.09345185-137.38287408-362.26844445-321.36912593-405.95911112zM328.68882963 307.84094815c0-102.91579259 83.86180741-186.7776 186.89896295-186.7776s186.7776 83.86180741 186.7776 186.7776-83.74044445 186.89896297-186.7776 186.89896296-186.89896297-83.86180741-186.89896295-186.89896296z" fill="#515151" p-id="14829"></path><path d="M230.87028148 784.55466666l41.74885926 13.95674075c0.36408889-1.21362963 41.02068148-120.02797037 137.38287407-139.32468149l-8.73813333-43.08385184c-120.99887408 24.15122963-168.45179259 162.62637037-170.3936 168.45179258z" fill="#515151" p-id="14830"></path></svg>