<?xml version="1.0" standalone="no"?><!DOCTYPE svg PUBLIC "-//W3C//DTD SVG 1.1//EN" "http://www.w3.org/Graphics/SVG/1.1/DTD/svg11.dtd"><svg t="1547128144521" class="icon" style="" viewBox="0 0 1024 1024" version="1.1" xmlns="http://www.w3.org/2000/svg" p-id="15881" xmlns:xlink="http://www.w3.org/1999/xlink" width="32" height="32"><defs><style type="text/css"></style></defs><path d="M857.6 822.4l-192-192c-9.6-9.6-24-9.6-33.6 0 0 0 0 1.6-1.6 1.6-46.4 46.4-108.8 72-174.4 72C320 704 208 592 208 456S320 208 456 208 704 320 704 456c0 20.8-3.2 40-8 59.2-3.2 12.8 4.8 25.6 17.6 28.8 12.8 3.2 25.6-4.8 28.8-17.6 6.4-22.4 8-46.4 8-72C752 292.8 619.2 160 456 160S160 292.8 160 456 292.8 752 456 752c70.4 0 137.6-25.6 192-70.4l176 176c4.8 4.8 11.2 6.4 17.6 6.4s12.8-1.6 17.6-6.4c6.4-9.6 6.4-25.6-1.6-35.2z" p-id="15882" fill="#CFAC66"></path></svg>