<?xml version="1.0" standalone="no"?><!DOCTYPE svg PUBLIC "-//W3C//DTD SVG 1.1//EN" "http://www.w3.org/Graphics/SVG/1.1/DTD/svg11.dtd"><svg t="1547132382539" class="icon" style="" viewBox="0 0 1024 1024" version="1.1" xmlns="http://www.w3.org/2000/svg" p-id="4548" xmlns:xlink="http://www.w3.org/1999/xlink" width="32" height="32"><defs><style type="text/css"></style></defs><path d="M486.08 859.472A413.808 413.808 0 0 1 486.08 32a410.224 410.224 0 0 1 406.08 413.744 415.808 415.808 0 0 1-10.88 94.576 35.472 35.472 0 0 1-43.504 27.328 36.192 36.192 0 0 1-26.832-44.336 348.48 348.48 0 0 0 8.704-77.568A337.264 337.264 0 0 0 486.08 105.888a339.92 339.92 0 0 0 0 679.712 329.92 329.92 0 0 0 193.6-62.8 35.84 35.84 0 0 1 50.752 8.864 37.392 37.392 0 0 1-8.704 51.712 402.832 402.832 0 0 1-235.648 76.096z" p-id="4549" fill="#ffffff"></path><path d="M907.584 992a39.536 39.536 0 0 1-26.784-10.656L675.232 772.272a31.728 31.728 0 0 1 2.176-47.28 38.832 38.832 0 0 1 51.408 2l205.632 209.088a31.728 31.728 0 0 1-2.176 47.28 38.144 38.144 0 0 1-24.688 8.64z" p-id="4550" fill="#ffffff"></path></svg>